<?xml version="1.0" standalone="no"?><!DOCTYPE svg PUBLIC "-//W3C//DTD SVG 1.1//EN" "http://www.w3.org/Graphics/SVG/1.1/DTD/svg11.dtd"><svg t="1655431248062" class="icon" viewBox="0 0 1024 1024" version="1.1" xmlns="http://www.w3.org/2000/svg" p-id="6823" xmlns:xlink="http://www.w3.org/1999/xlink" width="200" height="200"><defs><style type="text/css">@font-face { font-family: feedback-iconfont; src: url("//at.alicdn.com/t/font_1031158_u69w8yhxdu.woff2?t=1630033759944") format("woff2"), url("//at.alicdn.com/t/font_1031158_u69w8yhxdu.woff?t=1630033759944") format("woff"), url("//at.alicdn.com/t/font_1031158_u69w8yhxdu.ttf?t=1630033759944") format("truetype"); }
</style></defs><path d="M249.753333 560.913333a21.333333 21.333333 0 0 1 0 30.173334l-128 128A21.333333 21.333333 0 0 1 85.333333 704V597.333333A85.426667 85.426667 0 0 1 0 512V170.666667a85.426667 85.426667 0 0 1 85.333333-85.333334h554.666667a85.426667 85.426667 0 0 1 85.333333 85.333334v64a21.333333 21.333333 0 0 1-42.666666 0v-64a42.713333 42.713333 0 0 0-42.666667-42.666667H85.333333a42.713333 42.713333 0 0 0-42.666666 42.666667v341.333333a42.713333 42.713333 0 0 0 42.666666 42.666667h21.333334a21.333333 21.333333 0 0 1 21.333333 21.333333v76.5l91.58-91.586667a21.333333 21.333333 0 0 1 30.173333 0zM1024 384v341.333333a85.426667 85.426667 0 0 1-85.333333 85.333334v106.666666a21.333333 21.333333 0 0 1-36.42 15.086667L780.5 810.666667H384a85.426667 85.426667 0 0 1-85.333333-85.333334V384a85.426667 85.426667 0 0 1 85.333333-85.333333h554.666667a85.426667 85.426667 0 0 1 85.333333 85.333333z m-42.666667 0a42.713333 42.713333 0 0 0-42.666666-42.666667H384a42.713333 42.713333 0 0 0-42.666667 42.666667v341.333333a42.713333 42.713333 0 0 0 42.666667 42.666667h405.333333a21.333333 21.333333 0 0 1 15.086667 6.246667L896 865.833333V789.333333a21.333333 21.333333 0 0 1 21.333333-21.333333h21.333334a42.713333 42.713333 0 0 0 42.666666-42.666667zM128 341.333333a42.666667 42.666667 0 1 0 42.666667-42.666666 42.666667 42.666667 0 0 0-42.666667 42.666666z m725.333333 170.666667a42.666667 42.666667 0 1 0 42.666667 42.666667 42.666667 42.666667 0 0 0-42.666667-42.666667z m-341.333333 0a42.666667 42.666667 0 1 0 42.666667 42.666667 42.666667 42.666667 0 0 0-42.666667-42.666667z m170.666667 0a42.666667 42.666667 0 1 0 42.666666 42.666667 42.666667 42.666667 0 0 0-42.666666-42.666667z" p-id="6824"></path></svg>