<?xml version="1.0" standalone="no"?><!DOCTYPE svg PUBLIC "-//W3C//DTD SVG 1.1//EN" "http://www.w3.org/Graphics/SVG/1.1/DTD/svg11.dtd"><svg t="1655431815149" class="icon" viewBox="0 0 1024 1024" version="1.1" xmlns="http://www.w3.org/2000/svg" p-id="13862" xmlns:xlink="http://www.w3.org/1999/xlink" width="200" height="200"><defs><style type="text/css">@font-face { font-family: feedback-iconfont; src: url("//at.alicdn.com/t/font_1031158_u69w8yhxdu.woff2?t=1630033759944") format("woff2"), url("//at.alicdn.com/t/font_1031158_u69w8yhxdu.woff?t=1630033759944") format("woff"), url("//at.alicdn.com/t/font_1031158_u69w8yhxdu.ttf?t=1630033759944") format("truetype"); }
</style></defs><path d="M256 224l16 384-88 16c-16.416 0-47.68-84.944-60.376-93.424A79.928 79.928 0 0 1 88 464V208a80 80 0 0 1 80-80h384a80 80 0 0 1 80 80v16H256z" p-id="13863"></path><path d="M944 792h-104v112a32 32 0 0 1-32 32 30.8 30.8 0 0 1-4.488-0.456A32.208 32.208 0 0 1 776.8 926.4L642.4 792H304a80 80 0 0 1-80-80v-66.256L183.28 686.4a32.304 32.304 0 0 1-26.752 9.136A31.2 31.2 0 0 1 120 664V568h-40A80 80 0 0 1 0 488V168a80 80 0 0 1 80-80h472a80 80 0 0 1 80 80v32h312a80 80 0 0 1 80 80v432a80 80 0 0 1-80 80zM568 184a32 32 0 0 0-32-32H96a32 32 0 0 0-32 32v288a32 32 0 0 0 32 32h56a32 32 0 0 1 32 32v57.88l40-39.872V280a80 80 0 0 1 80-80h264v-16z m392 112a32 32 0 0 0-32-32H320a32 32 0 0 0-32 32v400a32 32 0 0 0 32 32h334.816a32.224 32.224 0 0 1 24.648 9.336L776 833.872V760a32 32 0 0 1 32-32h120a32 32 0 0 0 32-32V296z m-128 256a56 56 0 1 1 56-56 56 56 0 0 1-56 56z m-208 0a56 56 0 1 1 56-56 56 56 0 0 1-56 56z m-208 0a56 56 0 1 1 56-56 56 56 0 0 1-56 56z" p-id="13864"></path></svg>