<?xml version="1.0" standalone="no"?><!DOCTYPE svg PUBLIC "-//W3C//DTD SVG 1.1//EN" "http://www.w3.org/Graphics/SVG/1.1/DTD/svg11.dtd"><svg t="1655431800149" class="icon" viewBox="0 0 1024 1024" version="1.1" xmlns="http://www.w3.org/2000/svg" p-id="13548" xmlns:xlink="http://www.w3.org/1999/xlink" width="200" height="200"><defs><style type="text/css">@font-face { font-family: feedback-iconfont; src: url("//at.alicdn.com/t/font_1031158_u69w8yhxdu.woff2?t=1630033759944") format("woff2"), url("//at.alicdn.com/t/font_1031158_u69w8yhxdu.woff?t=1630033759944") format("woff"), url("//at.alicdn.com/t/font_1031158_u69w8yhxdu.ttf?t=1630033759944") format("truetype"); }
</style></defs><path d="M357.2 661.3c82.1 0 149.3-64.6 149.3-143.6V271.6c0-79-67.2-143.6-149.3-143.6s-149.3 64.6-149.3 143.6v246.2c-0.1 78.9 67.1 143.5 149.3 143.5z m-85.4-388.2c0-44.6 38.4-81.1 85.3-81.1s85.3 36.5 85.3 81.1v243.2c0 44.6-38.4 81.1-85.3 81.1s-85.3-36.5-85.3-81.1V273.1z" p-id="13549"></path><path d="M431.8 832h-42.7v-65.9C519.5 752.2 624.6 654.6 649.8 528c3.9-19.4-11.8-37.3-31.6-37.3-15.2 0-28.1 10.7-31.2 25.6C565.3 623.4 470.7 704 357.2 704S149 623.4 127.3 516.2c-3-14.9-16-25.6-31.2-25.6-19.8 0-35.4 17.9-31.6 37.3C89.7 654.5 194.8 752.1 325.1 766v66h-42.7c-17.6 0-32 14.4-32 32s14.4 32 32 32h149.3c17.6 0 32-14.4 32-32s-14.3-32-31.9-32zM821.3 341.3h-192c-17.6 0-32 14.4-32 32s14.4 32 32 32h192c17.6 0 32-14.4 32-32s-14.4-32-32-32zM821.3 661.3h-192c-17.6 0-32 14.4-32 32s14.4 32 32 32h192c17.6 0 32-14.4 32-32s-14.4-32-32-32zM821.3 512H714.7c-17.6 0-32 14.4-32 32s14.4 32 32 32h106.7c17.6 0 32-14.4 32-32s-14.5-32-32.1-32z" p-id="13550"></path><path d="M874.7 149.3H565.3c-17.7 0-32 14.3-32 32s14.3 32 32 32h288c23.6 0 42.7 19.1 42.7 42.7v512c0 23.6-19.1 42.7-42.7 42.7H522.7c-17.7 0-32 14.3-32 32s14.3 32 32 32h352c47.1 0 85.3-38.2 85.3-85.3V234.7c0-47.2-38.2-85.4-85.3-85.4z" p-id="13551"></path></svg>