<?xml version="1.0" standalone="no"?><!DOCTYPE svg PUBLIC "-//W3C//DTD SVG 1.1//EN" "http://www.w3.org/Graphics/SVG/1.1/DTD/svg11.dtd"><svg t="1656053162263" class="icon" viewBox="0 0 1024 1024" version="1.1" xmlns="http://www.w3.org/2000/svg" p-id="5636" xmlns:xlink="http://www.w3.org/1999/xlink" width="200" height="200"><defs><style type="text/css">@font-face { font-family: feedback-iconfont; src: url("//at.alicdn.com/t/font_1031158_u69w8yhxdu.woff2?t=1630033759944") format("woff2"), url("//at.alicdn.com/t/font_1031158_u69w8yhxdu.woff?t=1630033759944") format("woff"), url("//at.alicdn.com/t/font_1031158_u69w8yhxdu.ttf?t=1630033759944") format("truetype"); }
</style></defs><path d="M511 961C264 961 63 760 63 513S264 65 511 65s448 201 448 448-201 448-448 448z m0-843.3C293 117.7 115.7 295 115.7 513S293 908.3 511 908.3 906.3 731 906.3 513 729 117.7 511 117.7z" p-id="5637"></path><path d="M528.5 162.1C320 151.5 148.8 322.8 159.3 531.3c9 178.5 154.1 323.6 332.6 332.6 208.5 10.6 379.8-160.7 369.2-369.2-9-178.5-154-323.6-332.6-332.6z m171.8 522.3H321c-6.8 0-13.4-4-15.6-10.5-3.6-10.8 4.5-20.9 14.8-20.9h379.3c6.8 0 13.4 4 15.6 10.5 3.6 10.8-4.5 20.9-14.8 20.9z m-8.9-69H329.1V378.7c0-7.8 6.3-14 14-14h334.3c7.8 0 14 6.3 14 14v236.7z" p-id="5638"></path><path d="M393.5 407.4h58.3c33.5 0 60 12.4 53.1 51.6-6.7 38-39.3 54.5-71.8 54.5h-17.2l-8.7 49.2h-41.1l27.4-155.3z m43.4 73.7c16.3 0 25.3-8.1 27.8-22s-5.2-19.1-20.5-19.1h-15.3l-7.2 41.1h15.2zM519.7 486.3c9.2-52.1 48.4-81.8 90.4-81.8 20.1 0 35.1 9.6 44.3 20.1L627.5 450c-6.1-6.2-13.1-10-23.6-10-19.1 0-36.9 16.7-41.9 45-5.1 29.2 6.8 45.4 27.9 45.4 10 0 19.6-5.3 27.5-12.4l18.1 24.9c-15.6 15.3-35.1 22.9-56.2 22.9-38.7-0.1-68.9-26.4-59.6-79.5z" p-id="5639"></path></svg>