<?xml version="1.0" standalone="no"?><!DOCTYPE svg PUBLIC "-//W3C//DTD SVG 1.1//EN" "http://www.w3.org/Graphics/SVG/1.1/DTD/svg11.dtd"><svg t="1656397633725" class="icon" viewBox="0 0 1024 1024" version="1.1" xmlns="http://www.w3.org/2000/svg" p-id="3587" xmlns:xlink="http://www.w3.org/1999/xlink" width="200" height="200"><defs><style type="text/css">@font-face { font-family: feedback-iconfont; src: url("//at.alicdn.com/t/font_1031158_u69w8yhxdu.woff2?t=1630033759944") format("woff2"), url("//at.alicdn.com/t/font_1031158_u69w8yhxdu.woff?t=1630033759944") format("woff"), url("//at.alicdn.com/t/font_1031158_u69w8yhxdu.ttf?t=1630033759944") format("truetype"); }
</style></defs><path d="M814.1 527.2V374.3c0-57.7-47-104.7-104.7-104.7h-85.7V164.5c0-21.8-17.7-39.5-39.5-39.5H317.6c-21.8 0-39.5 17.7-39.5 39.5v105.1h-85.7c-57.7 0-104.7 47-104.7 104.7v409.1c0 57.7 47 104.7 104.7 104.7h442.9c29.9 17.5 64.6 27.6 101.7 27.6 111.3 0 201.9-90.6 201.9-201.9 0-84.1-51.6-156.2-124.8-186.6zM325.5 172.4h250.8v97.2H325.5v-97.2zM192.4 317h517c31.6 0 57.3 25.7 57.3 57.3v107.2H135.1V374.3c0-31.6 25.7-57.3 57.3-57.3zM535 533.8c0 46.3-37.7 84-84 84s-84-37.7-84-84c0-1.6 0-3.2 0.2-4.9H535c-0.1 1.7 0 3.3 0 4.9zM135.1 783.4V528.9h184.5c-0.1 1.6-0.1 3.3-0.1 4.9 0 72.5 59 131.4 131.4 131.4 72.5 0 131.4-59 131.4-131.4 0-1.6 0-3.2-0.1-4.9h73.7c-71 31.3-120.8 102.4-120.8 184.8 0 48.1 16.9 92.2 45 126.9H192.4c-31.6 0.1-57.3-25.6-57.3-57.2zM737 868.3c-22.3 0-43.6-4.8-62.7-13.3l-16.7-10.6c-45.2-28.6-72.3-77.4-72.3-130.6 0-84.7 68.6-153.7 153.1-154.5 84.6 0.7 153.1 69.7 153.1 154.5 0 85.1-69.3 154.5-154.5 154.5z" p-id="3588"></path><path d="M819.8 744.5l-56.1-32.2-0.1-65.5c0-13.1-10.6-23.6-23.7-23.6s-23.7 10.7-23.6 23.7l0.1 65.4-56.4 32c-11.4 6.4-15.4 20.9-8.9 32.3 4.4 7.7 12.4 12 20.6 12 4 0 8-1 11.7-3.1l56.8-32.2 56.2 32.2c3.7 2.1 7.8 3.1 11.8 3.1 8.2 0 16.2-4.3 20.6-11.9 6.2-11.2 2.3-25.7-9-32.2z" p-id="3589"></path></svg>