<?xml version="1.0" standalone="no"?><!DOCTYPE svg PUBLIC "-//W3C//DTD SVG 1.1//EN" "http://www.w3.org/Graphics/SVG/1.1/DTD/svg11.dtd"><svg t="1607479644217" class="icon" viewBox="0 0 1024 1024" version="1.1" xmlns="http://www.w3.org/2000/svg" p-id="18931" xmlns:xlink="http://www.w3.org/1999/xlink" width="500" height="500"><defs><style type="text/css"></style></defs><path d="M556.420283 889.70103H206.38911c-53.098053 0-96.143297-43.04646-96.143296-96.143297V303.118061c0-53.09927 43.045243-96.143297 96.143296-96.143297h28.33153v-61.608581H189.517661c-78.152842 0-141.508045 63.355203-141.508045 141.508045v526.064203c0 78.152842 63.355203 141.508045 141.508045 141.508045h435.535398a256.845944 256.845944 0 0 1-68.632776-64.745446zM919.32489 286.874228c-0.002433-78.152842-63.357636-141.508045-141.510477-141.508045h-45.202979v61.608581h28.33153c53.09927 0 96.143297 43.045243 96.143297 96.143297v198.724527a255.10662 255.10662 0 0 1 62.238629 35.543037v-250.511397zM608.140256 269.84101h62.236197v-62.236197h-62.236197V83.129986H359.193035v124.474827h-62.23863v62.236197h311.185851zM421.429232 145.366183h124.474827v62.23863H421.429232v-62.23863z" p-id="18932"></path><path d="M234.718208 394.313404h498.074456v62.23863H234.718208zM234.718208 518.788231h274.244055v62.236197H234.718208zM234.718208 643.260625h271.811434v62.23863H234.718208z" p-id="18933"></path><path d="M974.921246 711.602703h-0.267588c-0.89034-8.73068-7.839124-15.679464-16.569804-16.569803h-10.24377v-0.087575c-10.868954 0-20.399967-6.324817-24.942888-15.500666-1.069137-2.227065-1.960693-4.634145-2.40708-7.216373-2.048268-5.702066-4.364124-11.314124-6.948784-16.658594-1.335509-1.959477-2.315856-4.008961-3.117405-6.236026a27.014266 27.014266 0 0 1-1.603098-9.263424c0-7.662759 3.117405-14.611543 8.105496-19.689641l5.702066-5.700849c0.090007-0.090007 0.177581-0.090007 0.268805-0.177582 0.088791-0.088791 0.088791-0.178798 0.177581-0.268805 6.592405-6.769987 6.947568-17.371353 1.069137-24.586509l0.090007-0.08879a271.916037 271.916037 0 0 0-13.631196-14.966706 228.521712 228.521712 0 0 0-15.321869-13.986359l-0.088791 0.08879c-6.504831-5.34447-15.858262-5.523268-22.629464-0.623967l-4.095319 4.097751-3.831379 3.741373-0.177582-0.177582c-8.107929 8.106712-19.954797 10.156196-30.022202 6.147236-1.336726-0.53396-2.671019-1.157928-3.918954-1.959477-6.414824-3.117405-13.006013-5.790856-19.777216-8.107929-1.246719-0.266372-2.404647-0.711542-3.563791-1.157928-3.207412-1.245502-6.326033-3.294986-8.997051-5.967221-4.542921-4.542921-7.126366-10.243771-7.929131-16.213425a30.175458 30.175458 0 0 1 0-6.948784v-4.81051c0-9.087059-6.591189-16.747385-15.231862-18.262908l-3.209845-0.266372c-6.236026-0.44517-12.380829-0.712758-18.618071-0.712758-6.236026 0-12.382045 0.267588-18.528064 0.801548-1.067921 0.087574-2.138275 0.177581-3.296203 0.267589-8.640673 1.514307-15.234294 9.085843-15.234294 18.262908v8.284294c0 11.938092-7.482745 22.093072-18.082894 26.102032-0.623968 0.267588-1.335509 0.53396-2.048268 0.712759-7.39517 2.494654-14.612759 5.523268-21.559111 8.908261h-0.088791c-0.535177 0.267588-1.069137 0.53396-1.693104 0.801549a27.85352 27.85352 0 0 1-11.580497 2.494653 27.663776 27.663776 0 0 1-19.598418-8.107928h-0.090007l-5.87843-5.878431c-6.414824-6.413607-16.391006-7.126366-23.607379-2.138275-0.800333 0.712758-1.693105 1.336726-2.494654 2.049484l-0.08879 0.088791a226.72887 226.72887 0 0 0-13.62998 12.560843 228.257772 228.257772 0 0 0-12.560843 13.628764c-0.712758 0.802765-1.425516 1.694321-2.137059 2.49587-5.079314 7.215156-4.364124 17.192555 2.137059 23.696169l5.880863 5.878431c8.374301 8.463091 10.332561 20.935144 5.702066 31.18013-0.268805 0.623968-0.623968 1.246719-0.981563 1.870686-3.384993 6.859994-6.412391 14.07515-8.908261 21.469104-0.177581 0.801549-0.53396 1.514307-0.800333 2.315856-1.336726 3.473784-3.475 6.859994-6.324817 9.619803-5.435693 5.435693-12.560843 8.107929-19.689641 8.107929v0.087574h-8.284294c-9.085843 0-16.748601 6.592405-18.262908 15.234295-0.088791 1.067921-0.177581 2.138275-0.268805 3.296202a256.408072 256.408072 0 0 0-0.711542 18.528065v0.356379c0 6.147235 0.267588 12.204464 0.711542 18.261692l0.268805 3.208628c1.514307 8.640673 9.087059 15.233078 18.172901 15.233078h8.284294c11.849301 0 21.916706 7.393954 25.924451 17.815306 0.266372 0.713975 0.53396 1.425516 0.711542 2.0507 0.090007 0 0.090007 0.088791 0.090007 0.088791 2.493437 7.392738 5.523268 14.610327 8.908261 21.556678 0.086358 0 0.086358 0.090007 0.086358 0.090007 0.268805 0.535177 0.536393 1.069137 0.802765 1.694321a28.151516 28.151516 0 0 1 2.494654 11.57928c0 7.662759-3.117405 14.610327-8.106712 19.689642l-5.610843 5.612058c-0.090007 0.088791-0.178798 0.088791-0.178797 0.177582-0.088791 0.088791-0.177581 0.177581-0.177582 0.266372-6.147235 6.326033-6.858777 16.12585-2.049484 23.250999 0.801549 0.981563 1.603098 1.960693 2.40708 2.939824 3.918954 4.722935 8.106712 9.17585 12.470836 13.542405 4.364124 4.36534 8.820687 8.551882 13.541189 12.46962 0.980347 0.802765 1.871903 1.604314 2.851033 2.407079 6.413607 4.36534 14.966706 4.186542 21.292739-0.445169l4.096535-4.097752 3.830163-3.830163 0.177581 0.178798c8.464308-8.375517 20.933927-10.333778 31.180131-5.613275 0.53396 0.178798 1.069137 0.44517 1.513091 0.712758 0 0 0.090007 0 0.090007 0.088791a166.570131 166.570131 0 0 0 21.736692 8.998268c0.622751 0.177581 1.244286 0.443953 1.86947 0.622751 3.652582 1.336726 7.037575 3.473784 9.977398 6.413608 5.433261 5.434477 8.106712 12.559627 8.106713 19.688424h0.08879v8.106713c0 9.531012 7.305163 17.460143 16.657378 18.439273v0.090007c6.769987 0.622751 13.541189 0.97913 20.399967 0.97913s13.718771-0.267588 20.399967-0.97913v-0.090007c9.353431-0.97913 16.658594-8.908261 16.658594-18.439273v-8.28551c0-11.135326 6.592405-20.756346 16.035843-25.211693 1.960693-0.89034 3.918954-1.603098 6.056013-2.049484a182.455152 182.455152 0 0 0 17.816522-7.393954 30.011256 30.011256 0 0 1 5.345686-2.671019 27.233201 27.233201 0 0 1 9.711027-1.783112c7.036359 0 13.451182 2.672235 18.439273 7.037575 0.89034 0.712758 1.603098 1.515523 2.40708 2.40708l4.721719 4.719286c6.502398 6.504831 16.747385 7.127582 23.962541 1.960693 0 0 0.088791 0 0.088791-0.08879 0.622751-0.53396 1.156712-0.980347 1.781895-1.514308a192.709869 192.709869 0 0 0 13.987576-12.917222 215.98033 215.98033 0 0 0 12.916005-14.07515c0.53396-0.622751 1.069137-1.245502 1.603098-1.959476 5.076882-6.948784 4.632928-16.657378-1.247935-23.249784l-1.336725-1.336725-5.165673-5.166889c-8.286726-8.28551-10.244987-20.489974-5.880863-30.644954 0.446386-0.980347 0.89034-1.870686 1.427949-2.761026 3.294986-6.682412 6.144803-13.631196 8.639456-20.756345 0.268805-0.981563 0.535177-1.870686 0.980347-2.762242 1.336726-3.473784 3.475-6.67998 6.237242-9.531013 5.433261-5.435693 12.559627-8.106712 19.687209-8.106712h8.017921v-0.090007c9.889824 0 17.994104-7.749117 18.529281-17.548934h0.267588c0.53396-6.414824 0.801549-12.917222 0.801549-19.420837a259.810094 259.810094 0 0 0-1.067921-20.401183z m-107.880697 20.578765c0 13.006013-2.137058 25.478065-6.147235 37.059777a108.953483 108.953483 0 0 1-5.345687 12.916006c-5.523268 11.402915-13.006013 21.737909-21.824266 30.64617-8.820687 8.907045-19.154464 16.300999-30.55738 21.914274-4.185326 2.049484-8.551882 3.918954-13.004796 5.434477a113.518298 113.518298 0 0 1-37.059777 6.236026h-0.355163a113.710475 113.710475 0 0 1-36.703399-6.057228c-4.632928-1.514307-9.087059-3.473784-13.452398-5.523268-11.314124-5.522052-21.557895-12.917222-30.378582-21.736693-8.908261-8.81947-16.300999-19.152032-21.91549-30.466156a97.951951 97.951951 0 0 1-5.520835-13.362391c-4.010177-11.580496-6.148452-23.874967-6.148452-36.792189 0-12.828431 2.225849-25.833228 6.148452-37.32615 1.601881-4.542921 3.472568-8.998268 5.520835-13.362392a112.989203 112.989203 0 0 1 21.91549-30.467372 113.035423 113.035423 0 0 1 30.644954-21.825483c4.276549-2.049484 8.640673-3.918954 13.272385-5.434477a114.094829 114.094829 0 0 1 36.704614-6.057229h0.355163a113.12543 113.12543 0 0 1 37.059777 6.236026c4.454131 1.514307 8.81947 3.384993 13.006013 5.434478 11.402915 5.612059 21.646685 13.006013 30.554947 21.91549 8.820687 8.907045 16.124634 19.153248 21.736692 30.377365a112.385913 112.385913 0 0 1 5.434477 13.09602c4.010177 11.581713 6.147235 24.052548 6.147236 36.970986v0.177582h-0.087575v-0.003649z" p-id="18934"></path></svg>