<?xml version="1.0" standalone="no"?><!DOCTYPE svg PUBLIC "-//W3C//DTD SVG 1.1//EN" "http://www.w3.org/Graphics/SVG/1.1/DTD/svg11.dtd"><svg t="1607499664254" class="icon" viewBox="0 0 1024 1024" version="1.1" xmlns="http://www.w3.org/2000/svg" p-id="65437" xmlns:xlink="http://www.w3.org/1999/xlink" width="200" height="200"><defs><style type="text/css"></style></defs><path d="M629.248 362.752a42.496 42.496 0 0 1-27.136-52.48 78.592 78.592 0 0 1 6.144-12.288 66.56 66.56 0 0 0 4.864-10.752 25.6 25.6 0 0 0-6.4-23.552L573.696 230.4a32.768 32.768 0 0 0-12.8-6.912 25.6 25.6 0 0 0-18.432 2.304 83.712 83.712 0 0 1-12.8 6.144 72.448 72.448 0 0 1-25.6 0 41.472 41.472 0 0 1-17.664-14.848 35.072 35.072 0 0 1-4.864-6.912 20.48 20.48 0 0 1 0 12.288 25.6 25.6 0 0 0-19.456-30.208 22.016 22.016 0 0 0-11.52 0l-47.36 10.24a23.808 23.808 0 0 0-18.176 17.152A53.76 53.76 0 0 0 384 230.4a54.528 54.528 0 0 1-1.28 14.08 42.752 42.752 0 0 1-51.2 30.976 27.392 27.392 0 0 0-29.696 19.712c-2.56 6.4-6.656 16.896-8.96 25.6s-4.352 19.456-5.888 28.928a25.6 25.6 0 0 0 15.616 29.696 42.496 42.496 0 0 1 27.136 51.2 74.24 74.24 0 0 1-6.144 12.8 68.864 68.864 0 0 0-4.864 9.728 25.6 25.6 0 0 0 6.4 24.064l33.28 33.28a34.048 34.048 0 0 0 12.8 6.656 24.064 24.064 0 0 0 18.688-2.304 153.6 153.6 0 0 1 14.336-6.656 40.192 40.192 0 0 1 25.6-3.072 34.56 34.56 0 0 1 16.384 11.264 144.128 144.128 0 0 1 7.168 14.592s2.816 6.144 3.328 6.912a25.6 25.6 0 0 0 21.248 12.288h5.12l47.104-10.24a25.6 25.6 0 0 0 18.432-16.896 87.552 87.552 0 0 0 0-11.52 51.2 51.2 0 0 1 0-13.824 42.496 42.496 0 0 1 51.2-30.976 30.464 30.464 0 0 0 29.696-19.712c2.56-6.144 6.656-16.64 9.216-25.6s4.096-19.2 5.632-28.928a25.6 25.6 0 0 0-15.104-29.696z m-37.12 45.056c0 2.56-1.536 5.376-2.56 8.448a90.624 90.624 0 0 0-86.272 67.584 70.4 70.4 0 0 0-2.304 11.52l-9.984 2.304c-1.28-2.304-2.816-4.864-4.352-7.936a84.736 84.736 0 0 0-44.544-32 70.656 70.656 0 0 0-18.176-2.304 116.48 116.48 0 0 0-35.584 6.4 44.288 44.288 0 0 0-6.144 2.56l-8.704-8.704a120.32 120.32 0 0 0 4.352-11.52 91.392 91.392 0 0 0-38.912-102.4 81.92 81.92 0 0 1 1.792-8.448c0-2.56 1.792-5.376 2.816-8.192a90.368 90.368 0 0 0 86.016-67.584 51.2 51.2 0 0 0 2.304-11.776l12.288-2.56c1.536 1.792 3.072 3.84 4.864 5.632a86.784 86.784 0 0 0 43.008 30.464A125.44 125.44 0 0 0 537.6 281.6a21.504 21.504 0 0 0 6.144-1.536l6.4-2.56 8.704 8.704a56.32 56.32 0 0 0-4.352 11.52 91.136 91.136 0 0 0 38.912 102.4 76.8 76.8 0 0 1-1.28 7.68z" p-id="65438"></path><path d="M486.4 303.872a69.376 69.376 0 0 0-37.12 133.632 76.8 76.8 0 0 0 18.432 2.304 69.632 69.632 0 0 0 66.816-51.2A69.632 69.632 0 0 0 486.4 303.872z m-36.608 62.208a17.408 17.408 0 0 1 16.64-12.8 12.288 12.288 0 0 1 4.608 0 17.152 17.152 0 0 1 12.032 21.248 17.408 17.408 0 0 1-7.936 10.496 17.152 17.152 0 0 1-13.312 1.536 16.896 16.896 0 0 1-10.496-8.192 16.64 16.64 0 0 1-1.536-12.288z" p-id="65439"></path><path d="M911.104 233.472a33.536 33.536 0 0 0-35.072 35.072v614.4H244.224a98.304 98.304 0 1 1 0-196.608h555.776a33.792 33.792 0 0 0 35.072-35.072V117.504a33.536 33.536 0 0 0-35.072-35.072H244.224A170.496 170.496 0 0 0 76.8 250.88v533.504a170.496 170.496 0 0 0 168.448 168.448h665.856A33.536 33.536 0 0 0 947.2 917.76V268.544a33.536 33.536 0 0 0-36.096-35.072zM244.224 153.6h520.704v462.336H244.224a161.792 161.792 0 0 0-98.56 32.256V250.88A97.536 97.536 0 0 1 244.224 153.6z" p-id="65440"></path><path d="M800 744.96h-512a35.072 35.072 0 0 0 0 69.888h512a35.072 35.072 0 1 0 0-69.888z" p-id="65441"></path></svg>