<?xml version="1.0" standalone="no"?><!DOCTYPE svg PUBLIC "-//W3C//DTD SVG 1.1//EN" "http://www.w3.org/Graphics/SVG/1.1/DTD/svg11.dtd"><svg t="1655431809605" class="icon" viewBox="0 0 1024 1024" version="1.1" xmlns="http://www.w3.org/2000/svg" p-id="13704" xmlns:xlink="http://www.w3.org/1999/xlink" width="200" height="200"><defs><style type="text/css">@font-face { font-family: feedback-iconfont; src: url("//at.alicdn.com/t/font_1031158_u69w8yhxdu.woff2?t=1630033759944") format("woff2"), url("//at.alicdn.com/t/font_1031158_u69w8yhxdu.woff?t=1630033759944") format("woff"), url("//at.alicdn.com/t/font_1031158_u69w8yhxdu.ttf?t=1630033759944") format("truetype"); }
</style></defs><path d="M733.866667 797.013333H290.133333c-37.546667 0-68.266667-30.72-68.266666-68.266666V414.72c0-37.546667 30.72-68.266667 68.266666-68.266667h443.733334c37.546667 0 68.266667 30.72 68.266666 68.266667v314.026667c0 39.253333-30.72 68.266667-68.266666 68.266666z" p-id="13705"></path><path d="M512 965.973333h-5.12L126.293333 890.88C73.386667 882.346667 34.133333 834.56 34.133333 781.653333V170.666667c0-34.133333 15.36-64.853333 40.96-87.04 25.6-22.186667 59.733333-30.72 93.866667-23.893334L358.4 95.573333c13.653333 3.413333 22.186667 15.36 20.48 30.72-3.413333 13.653333-15.36 22.186667-30.72 20.48L158.72 110.933333c-18.773333-3.413333-35.84 1.706667-51.2 13.653334C93.866667 134.826667 85.333333 151.893333 85.333333 170.666667v609.28c0 29.013333 20.48 54.613333 49.493334 59.733333l382.293333 73.386667c13.653333 3.413333 22.186667 15.36 20.48 30.72-3.413333 13.653333-13.653333 22.186667-25.6 22.186666z" p-id="13706"></path><path d="M512 965.973333c-11.946667 0-22.186667-8.533333-25.6-20.48-3.413333-13.653333 6.826667-27.306667 20.48-30.72l382.293333-73.386666c29.013333-5.12 49.493333-30.72 49.493334-59.733334V170.666667c0-18.773333-8.533333-35.84-22.186667-47.786667-13.653333-11.946667-32.426667-17.066667-51.2-13.653333L552.96 170.666667c-8.533333 1.706667-15.36 8.533333-15.36 17.066666v503.466667c0 13.653333-11.946667 25.6-25.6 25.6s-25.6-11.946667-25.6-25.6V189.44c0-32.426667 23.893333-61.44 56.32-68.266667l314.026667-59.733333c32.426667-6.826667 66.56 1.706667 93.866666 23.893333 23.893333 20.48 39.253333 51.2 39.253334 85.333334v609.28c0 54.613333-39.253333 100.693333-92.16 110.933333l-382.293334 73.386667c0 1.706667-1.706667 1.706667-3.413333 1.706666z" p-id="13707"></path><path d="M650.24 392.533333c-11.946667 0-22.186667-8.533333-25.6-20.48-3.413333-13.653333 5.12-27.306667 20.48-30.72l177.493333-37.546666c13.653333-3.413333 27.306667 5.12 30.72 20.48 3.413333 13.653333-5.12 27.306667-20.48 30.72L655.36 392.533333h-5.12zM650.24 556.373333c-11.946667 0-22.186667-8.533333-25.6-20.48-3.413333-13.653333 5.12-27.306667 20.48-30.72l177.493333-37.546666c13.653333-3.413333 27.306667 5.12 30.72 20.48s-5.12 27.306667-20.48 30.72l-177.493333 37.546666h-5.12z" p-id="13708"></path><path d="M373.76 392.533333h-5.12l-177.493333-37.546666c-13.653333-3.413333-22.186667-17.066667-20.48-30.72s17.066667-22.186667 30.72-20.48L378.88 341.333333c13.653333 3.413333 22.186667 17.066667 20.48 30.72-3.413333 13.653333-13.653333 20.48-25.6 20.48zM373.76 556.373333h-5.12l-177.493333-37.546666c-13.653333-3.413333-22.186667-17.066667-20.48-30.72 3.413333-13.653333 17.066667-22.186667 30.72-20.48l177.493333 37.546666c13.653333 3.413333 22.186667 17.066667 20.48 30.72-3.413333 11.946667-13.653333 20.48-25.6 20.48z" p-id="13709"></path></svg>